<?xml version="1.0" encoding="UTF-8" standalone="no"?>
<!DOCTYPE svg PUBLIC "-//W3C//DTD SVG 1.1//EN" "http://www.w3.org/Graphics/SVG/1.1/DTD/svg11.dtd">
<svg width="100%" height="100%" viewBox="0 0 2405 416" version="1.1" xmlns="http://www.w3.org/2000/svg" xmlns:xlink="http://www.w3.org/1999/xlink" xml:space="preserve" xmlns:serif="http://www.serif.com/" style="fill-rule:evenodd;clip-rule:evenodd;stroke-linejoin:round;stroke-miterlimit:2;">
    <g id="Artboard1" transform="matrix(0.86976,0,0,0.303221,400.106,49.8104)">
        <rect x="-460.018" y="-164.271" width="2764.78" height="1369.62" style="fill:none;"/>
        <g transform="matrix(0.962272,0,0,1.01397,1001.09,-18.9288)">
            <g transform="matrix(1.19482,0,0,3.25248,-698.738,-1332.35)">
                <g>
                    <g transform="matrix(4.79351,0,0,4.79351,-563.069,-1989.64)">
                        <text x="165.379px" y="575.782px" style="font-family:'Poppins-Bold', 'Poppins';font-weight:700;font-size:50px;fill:white;">N</text>
                    </g>
                    <g transform="matrix(1,0,0,1,14.6674,2.08466)">
                        <rect x="290.458" y="375.655" width="29.335" height="193.873" style="fill:white;"/>
                    </g>
                    <g transform="matrix(1,0,0,0.5,104.593,189.912)">
                        <rect x="290.458" y="375.655" width="29.335" height="193.873" style="fill:white;"/>
                    </g>
                    <g transform="matrix(1,0,0,0.5,-75.2581,189.912)">
                        <rect x="290.458" y="375.655" width="29.335" height="193.873" style="fill:white;"/>
                    </g>
                </g>
                <g transform="matrix(1,0,0,1,563.985,0)">
                    <g transform="matrix(4.79351,0,0,4.79351,-535.969,-1989.64)">
                        <text x="165.379px" y="575.782px" style="font-family:'Poppins-Bold', 'Poppins';font-weight:700;font-size:50px;fill:white;">E</text>
                    </g>
                    <g transform="matrix(1,0,0,1,14.6674,2.08466)">
                        <rect x="290.458" y="375.655" width="29.335" height="193.873" style="fill:white;"/>
                    </g>
                    <g transform="matrix(1,0,0,0.5,104.593,189.912)">
                        <rect x="290.458" y="375.655" width="29.335" height="193.873" style="fill:white;"/>
                    </g>
                    <g transform="matrix(1,0,0,0.5,-75.2581,189.912)">
                        <rect x="290.458" y="375.655" width="29.335" height="193.873" style="fill:white;"/>
                    </g>
                </g>
                <g transform="matrix(2.76172,0,0,2.76172,54.7562,-1065.15)">
                    <text x="165.379px" y="575.782px" style="font-family:'Poppins-Bold', 'Poppins';font-weight:700;font-size:50px;fill:white;">NE</text>
                </g>
            </g>
            <g transform="matrix(1.19482,0,0,3.25248,673.404,-1337.81)">
                <g>
                    <g transform="matrix(4.79351,0,0,4.79351,-547.069,-1989.64)">
                        <text x="165.379px" y="575.782px" style="font-family:'Poppins-Bold', 'Poppins';font-weight:700;font-size:50px;fill:white;">S</text>
                    </g>
                    <g transform="matrix(1,0,0,1,14.6674,2.08466)">
                        <rect x="290.458" y="375.655" width="29.335" height="193.873" style="fill:white;"/>
                    </g>
                    <g transform="matrix(1,0,0,0.5,104.593,189.912)">
                        <rect x="290.458" y="375.655" width="29.335" height="193.873" style="fill:white;"/>
                    </g>
                    <g transform="matrix(1,0,0,0.5,-75.2581,189.912)">
                        <rect x="290.458" y="375.655" width="29.335" height="193.873" style="fill:white;"/>
                    </g>
                </g>
                <g transform="matrix(1,0,0,1,-1796.24,0.206696)">
                    <g transform="matrix(4.79351,0,0,4.79351,-598.969,-1989.64)">
                        <text x="165.379px" y="575.782px" style="font-family:'Poppins-Bold', 'Poppins';font-weight:700;font-size:50px;fill:white;">W</text>
                    </g>
                    <g transform="matrix(1,0,0,1,14.6674,2.08466)">
                        <rect x="290.458" y="375.655" width="29.335" height="193.873" style="fill:white;"/>
                    </g>
                    <g transform="matrix(1,0,0,0.5,104.593,189.912)">
                        <rect x="290.458" y="375.655" width="29.335" height="193.873" style="fill:white;"/>
                    </g>
                    <g transform="matrix(1,0,0,0.5,-75.2581,189.912)">
                        <rect x="290.458" y="375.655" width="29.335" height="193.873" style="fill:white;"/>
                    </g>
                </g>
                <g transform="matrix(2.76172,0,0,2.76172,33.7562,-1065.15)">
                    <text x="165.379px" y="575.782px" style="font-family:'Poppins-Bold', 'Poppins';font-weight:700;font-size:50px;fill:white;">S</text>
                </g>
                <g transform="matrix(2.76172,0,0,2.76172,-2288.35,-1064.19)">
                    <text x="165.379px" y="575.782px" style="font-family:'Poppins-Bold', 'Poppins';font-weight:700;font-size:50px;fill:white;">W</text>
                </g>
            </g>
            <g transform="matrix(3.29976,0,0,8.98244,65.6254,-4792.24)">
                <text x="165.379px" y="575.782px" style="font-family:'Poppins-Bold', 'Poppins';font-weight:700;font-size:50px;fill:white;">SE</text>
            </g>
            <g transform="matrix(3.29976,0,0,8.98244,-1391.57,-4792.24)">
                <text x="165.379px" y="575.782px" style="font-family:'Poppins-Bold', 'Poppins';font-weight:700;font-size:50px;fill:white;">NW</text>
            </g>
        </g>
    </g>
</svg>
